<svg xmlns="http://www.w3.org/2000/svg" viewBox="0 0 122.51 106.94"><defs><style>.cls-1{fill:#392e24}.cls-2{fill:#f3bd00}</style></defs><g id="レイヤー_2" data-name="レイヤー 2"><g id="logo"><path class="cls-1" d="M19.98 82.87H1.19v3.76H8.7v19.44h3.76V86.63h7.52v-3.76zm79.46-.01H80.65v3.76h7.52v19.46h3.76V86.62h7.51v-3.76zm-27.44 0h3.76v23.22H72zm49.12 7.94a9.36 9.36 0 00-9.19-8.8h-.16a9.37 9.37 0 00-9.19 8.79 53 53 0 000 7.35 9.37 9.37 0 009.19 8.79h.15a9.37 9.37 0 009.2-8.79 53 53 0 000-7.34zm-3.68 7.1a5.68 5.68 0 01-5.52 5.35h-.15a5.67 5.67 0 01-5.51-5.35 49.08 49.08 0 010-6.86 5.67 5.67 0 015.53-5.34h.12a5.66 5.66 0 015.53 5.3 49.08 49.08 0 010 6.9zM48.56 82.86h3.76v23.22h-3.76z"/><path class="cls-2" d="M67.11 82.86h-4.9l-8.01 9.59v4.05l8.01 9.58h4.9L57.4 94.47l9.71-11.61z"/><path class="cls-1" d="M28.63 102.33v-5.9h10.61v-3.76H28.63v-6.04h15.03v-3.76H24.87v23.29l18.79-.02v-3.81H28.63zM0 .04h9.4v75.1H0zm15.66 68.88h3.14V0l-3.14.08v68.84zM88.05.08h9.4v68.84h-9.4zm25.06 0h9.4v75.1h-9.4zm-9.4 68.84h3.14V0l-3.14.08v68.84z"/><path fill="#20211b" d="M46.99 34.43l3.13-2.39"/><path d="M68.92 17.71l6.26-4.78"/><path class="cls-1" d="M56.39 68.92h6.26V22.49l-6.26 4.78v41.65zm12.53 0h6.26V12.93l-6.26 4.78v51.21zm9.76 0h3.12V7.88l-3.12 2.4v58.64z"/><path class="cls-2" d="M81.8 0H40.73v31.33L81.8 0z"/><path class="cls-1" d="M46.99 68.89h3.14V32.05l-3.14 2.38v34.46zm-6.27.03v-29.7l-6.26 4.77V.04h-9.4v68.84l15.66.04z"/></g></g></svg>