<?xml version="1.0" encoding="utf-8"?>
<!-- Generator: Adobe Illustrator 25.4.1, SVG Export Plug-In . SVG Version: 6.00 Build 0)  -->
<svg version="1.1" id="レイヤー_1" xmlns="http://www.w3.org/2000/svg" xmlns:xlink="http://www.w3.org/1999/xlink" x="0px"
	 y="0px" viewBox="0 0 122.5 106.9" style="enable-background:new 0 0 122.5 106.9;" xml:space="preserve">
<style type="text/css">
	.st0{fill:#FFFFFF;}
</style>
<g id="レイヤー_2_00000143584854560414242330000012321539158764732082_">
	<g id="logo">
		<polygon class="st0" points="20,82.9 1.2,82.9 1.2,86.6 8.7,86.6 8.7,106.1 12.5,106.1 12.5,86.6 20,86.6 		"/>
		<polygon class="st0" points="99.4,82.9 80.7,82.9 80.7,86.6 88.2,86.6 88.2,106.1 91.9,106.1 91.9,86.6 99.4,86.6 		"/>
		<rect x="72" y="82.9" class="st0" width="3.8" height="23.2"/>
		<path class="st0" d="M121.1,90.8c-0.3-4.9-4.3-8.7-9.2-8.8h-0.2c-4.9,0.1-8.9,3.9-9.2,8.8c-0.2,2.4-0.2,4.9,0,7.3
			c0.3,4.9,4.3,8.7,9.2,8.8h0.2c4.9-0.1,8.9-3.9,9.2-8.8C121.3,95.7,121.3,93.2,121.1,90.8z M117.4,97.9c-0.2,2.9-2.6,5.3-5.5,5.3
			h-0.2c-2.9-0.1-5.3-2.4-5.5-5.3c-0.2-2.3-0.2-4.6,0-6.9c0.2-2.9,2.6-5.3,5.5-5.3h0.1c2.9,0.1,5.3,2.4,5.5,5.3
			C117.6,93.3,117.6,95.6,117.4,97.9z"/>
		<rect x="48.6" y="82.9" class="st0" width="3.8" height="23.2"/>
		<polygon class="st0" points="67.1,82.9 62.2,82.9 54.2,92.4 54.2,96.5 62.2,106.1 67.1,106.1 57.4,94.5 		"/>
		<polygon class="st0" points="28.6,102.3 28.6,96.4 39.2,96.4 39.2,92.7 28.6,92.7 28.6,86.6 43.7,86.6 43.7,82.9 24.9,82.9 
			24.9,106.2 43.7,106.1 43.7,102.3 		"/>
		<rect y="0" class="st0" width="9.4" height="75.1"/>
		<polygon class="st0" points="15.7,68.9 18.8,68.9 18.8,0 15.7,0.1 		"/>
		<rect x="88.1" y="0.1" class="st0" width="9.4" height="68.8"/>
		<rect x="113.1" y="0.1" class="st0" width="9.4" height="75.1"/>
		<polygon class="st0" points="103.7,68.9 106.8,68.9 106.8,0 103.7,0.1 		"/>
		<line class="st0" x1="47" y1="34.4" x2="50.1" y2="32"/>
		<line class="st0" x1="68.9" y1="17.7" x2="75.2" y2="12.9"/>
		<polygon class="st0" points="56.4,68.9 62.7,68.9 62.7,22.5 56.4,27.3 		"/>
		<polygon class="st0" points="68.9,68.9 75.2,68.9 75.2,12.9 68.9,17.7 		"/>
		<polygon class="st0" points="78.7,68.9 81.8,68.9 81.8,7.9 78.7,10.3 		"/>
		<polygon class="st0" points="81.8,0 40.7,0 40.7,31.3 		"/>
		<polygon class="st0" points="47,68.9 50.1,68.9 50.1,32 47,34.4 		"/>
		<polygon class="st0" points="40.7,68.9 40.7,39.2 34.5,44 34.5,0 25.1,0 25.1,68.9 		"/>
	</g>
</g>
</svg>
