<svg xmlns="http://www.w3.org/2000/svg" viewBox="0 0 272.39 56.55"><defs><style>.cls-1{fill:#392e24;}.cls-2{fill:#f3bd00;}</style></defs><g id="レイヤー_2" data-name="レイヤー 2"><g id="logo"><polygon class="cls-1" points="42.64 1.96 0 1.96 0 10.49 17.05 10.49 17.05 54.59 25.59 54.59 25.59 10.49 42.64 10.49 42.64 1.96"/><polygon class="cls-1" points="222.92 1.93 180.28 1.93 180.28 10.46 197.34 10.46 197.34 54.62 205.87 54.62 205.87 10.46 222.92 10.46 222.92 1.93"/><rect class="cls-1" x="160.65" y="1.93" width="8.53" height="52.68"/><path class="cls-1" d="M272.11,19.94A21.26,21.26,0,0,0,251.24,0h-.34A21.27,21.27,0,0,0,230,19.93a125.61,125.61,0,0,0,0,16.69,21.26,21.26,0,0,0,20.86,19.93h.35a21.26,21.26,0,0,0,20.87-19.93A125.46,125.46,0,0,0,272.11,19.94Zm-8.36,16.12a12.85,12.85,0,0,1-12.53,12.12h-.33a12.84,12.84,0,0,1-12.5-12.12,112.37,112.37,0,0,1,0-15.57A12.86,12.86,0,0,1,250.94,8.37h.26a12.85,12.85,0,0,1,12.55,12.12A112.37,112.37,0,0,1,263.75,36.06Z"/><rect class="cls-1" x="107.47" y="1.93" width="8.53" height="52.68"/><polygon class="cls-2" points="149.56 1.93 138.44 1.93 120.27 23.68 120.27 32.88 138.44 54.62 149.56 54.62 127.54 28.28 149.56 1.93"/><polygon class="cls-1" points="62.27 46.11 62.27 32.72 86.33 32.72 86.33 24.19 62.27 24.19 62.27 10.49 96.37 10.49 96.37 1.96 53.73 1.96 53.73 54.79 96.37 54.75 96.37 46.11 62.27 46.11"/></g></g></svg>