<svg xmlns="http://www.w3.org/2000/svg" viewBox="0 0 122.51 106.94"><defs><style>.cls-1{fill:#392e24;}.cls-2{fill:#f3bd00;}.cls-3{fill:#20211b;}</style></defs><g id="レイヤー_2" data-name="レイヤー 2"><g id="logo"><polygon class="cls-1" points="19.98 82.87 1.19 82.87 1.19 86.63 8.7 86.63 8.7 106.07 12.46 106.07 12.46 86.63 19.98 86.63 19.98 82.87"/><polygon class="cls-1" points="99.44 82.86 80.65 82.86 80.65 86.62 88.17 86.62 88.17 106.08 91.93 106.08 91.93 86.62 99.44 86.62 99.44 82.86"/><rect class="cls-1" x="72" y="82.86" width="3.76" height="23.22"/><path class="cls-1" d="M121.12,90.8A9.36,9.36,0,0,0,111.93,82h-.16a9.37,9.37,0,0,0-9.19,8.79,53,53,0,0,0,0,7.35,9.37,9.37,0,0,0,9.19,8.79h.15a9.37,9.37,0,0,0,9.2-8.79A53,53,0,0,0,121.12,90.8Zm-3.68,7.1a5.68,5.68,0,0,1-5.52,5.35h-.15a5.67,5.67,0,0,1-5.51-5.35,49.08,49.08,0,0,1,0-6.86,5.67,5.67,0,0,1,5.53-5.34h.12A5.66,5.66,0,0,1,117.44,91,49.08,49.08,0,0,1,117.44,97.9Z"/><rect class="cls-1" x="48.56" y="82.86" width="3.76" height="23.22"/><polygon class="cls-2" points="67.11 82.86 62.21 82.86 54.2 92.45 54.2 96.5 62.21 106.08 67.11 106.08 57.4 94.47 67.11 82.86"/><polygon class="cls-1" points="28.63 102.33 28.63 96.43 39.24 96.43 39.24 92.67 28.63 92.67 28.63 86.63 43.66 86.63 43.66 82.87 24.87 82.87 24.87 106.16 43.66 106.14 43.66 102.33 28.63 102.33"/><rect class="cls-1" y="0.04" width="9.4" height="75.1"/><polygon class="cls-1" points="15.66 68.92 18.8 68.92 18.8 0 15.66 0.08 15.66 68.92"/><rect class="cls-1" x="88.05" y="0.08" width="9.4" height="68.84"/><rect class="cls-1" x="113.11" y="0.08" width="9.4" height="75.1"/><polygon class="cls-1" points="103.71 68.92 106.85 68.92 106.85 0 103.71 0.08 103.71 68.92"/><line class="cls-3" x1="46.99" y1="34.43" x2="50.12" y2="32.04"/><line x1="68.92" y1="17.71" x2="75.18" y2="12.93"/><polygon class="cls-1" points="56.39 68.92 62.65 68.92 62.65 22.49 56.39 27.27 56.39 68.92"/><polygon class="cls-1" points="68.92 68.92 75.18 68.92 75.18 12.93 68.92 17.71 68.92 68.92"/><polygon class="cls-1" points="78.68 68.92 81.8 68.92 81.8 7.88 78.68 10.28 78.68 68.92"/><polygon class="cls-2" points="81.8 0 40.73 0 40.73 31.33 81.8 0"/><polygon class="cls-1" points="46.99 68.89 50.13 68.89 50.13 32.05 46.99 34.43 46.99 68.89"/><polygon class="cls-1" points="40.72 68.92 40.72 39.22 34.46 43.99 34.46 0.04 25.06 0.04 25.06 68.88 40.72 68.92"/></g></g></svg>